<svg width="53" height="48" viewBox="0 0 53 48" fill="none" xmlns="http://www.w3.org/2000/svg">
<g filter="url(#filter0_d_10_333)">
<ellipse cx="26.546" cy="20.6577" rx="22.4036" ry="19.9146" fill="#261437"/>
</g>
<path fill-rule="evenodd" clip-rule="evenodd" d="M24.242 18.2443H27.5703V19.7179C28.0497 18.8704 29.2793 18.1088 31.1262 18.1088C34.6669 18.1088 35.5075 19.796 35.5075 22.8915V28.6245H31.9229V23.5965C31.9229 21.8337 31.4434 20.8395 30.2229 20.8395C28.5301 20.8395 27.8266 21.9109 27.8266 23.5957V28.6245H24.242V18.2443V18.2443ZM18.0954 28.4891H21.68V18.1088H18.0954V28.4891V28.4891ZM22.1934 14.7242C22.1936 14.9912 22.134 15.2557 22.0182 15.5021C21.9023 15.7485 21.7325 15.972 21.5187 16.1596C21.0853 16.5425 20.4987 16.7568 19.8877 16.7554C19.2777 16.7551 18.6925 16.5413 18.2585 16.1604C18.0454 15.9722 17.8762 15.7484 17.7605 15.502C17.6449 15.2555 17.5851 14.9912 17.5846 14.7242C17.5846 14.1849 17.8265 13.6687 18.2594 13.2879C18.693 12.9065 19.2785 12.6926 19.8886 12.6929C20.4997 12.6929 21.0858 12.9072 21.5187 13.2879C21.9506 13.6687 22.1934 14.1849 22.1934 14.7242Z" fill="#E2E2E2"/>
<defs>
<filter id="filter0_d_10_333" x="0.594357" y="0.743164" width="51.9034" height="46.9253" filterUnits="userSpaceOnUse" color-interpolation-filters="sRGB">
<feFlood flood-opacity="0" result="BackgroundImageFix"/>
<feColorMatrix in="SourceAlpha" type="matrix" values="0 0 0 0 0 0 0 0 0 0 0 0 0 0 0 0 0 0 127 0" result="hardAlpha"/>
<feOffset dy="3.54808"/>
<feGaussianBlur stdDeviation="1.77404"/>
<feComposite in2="hardAlpha" operator="out"/>
<feColorMatrix type="matrix" values="0 0 0 0 0 0 0 0 0 0 0 0 0 0 0 0 0 0 0.25 0"/>
<feBlend mode="normal" in2="BackgroundImageFix" result="effect1_dropShadow_10_333"/>
<feBlend mode="normal" in="SourceGraphic" in2="effect1_dropShadow_10_333" result="shape"/>
</filter>
</defs>
</svg>
