<svg width="53" height="48" viewBox="0 0 53 48" fill="none" xmlns="http://www.w3.org/2000/svg">
<g filter="url(#filter0_d_10_343)">
<ellipse cx="26.2137" cy="20.6577" rx="22.4036" ry="19.9146" fill="#261437"/>
</g>
<path d="M35.1751 15.8345C34.516 16.0891 33.7987 16.2722 33.0599 16.3436C33.827 15.9356 34.4014 15.2911 34.6754 14.531C33.9556 14.9143 33.1671 15.1831 32.3448 15.3255C32.0012 14.9966 31.5855 14.7345 31.1238 14.5557C30.662 14.3769 30.1641 14.2851 29.661 14.2861C27.6256 14.2861 25.9886 15.7632 25.9886 17.5757C25.9886 17.8303 26.023 18.0848 26.079 18.3297C23.0312 18.187 20.313 16.8835 18.5058 14.8878C18.1765 15.3913 18.004 15.9645 18.0061 16.548C18.0061 17.6895 18.6544 18.696 19.6431 19.288C19.0605 19.2675 18.4915 19.1241 17.9824 18.8696V18.9101C17.9824 20.5086 19.2446 21.8333 20.9268 22.138C20.611 22.2114 20.2861 22.249 19.9597 22.2498C19.7206 22.2498 19.4945 22.2286 19.2662 22.1997C19.7314 23.5032 21.0862 24.4499 22.6995 24.4808C21.4373 25.3659 19.8563 25.8865 18.1396 25.8865C17.8316 25.8865 17.5473 25.8769 17.2522 25.846C18.8806 26.7812 20.8127 27.3211 22.8934 27.3211C29.6481 27.3211 33.3443 22.3115 33.3443 17.9633C33.3443 17.8206 33.3443 17.6779 33.3335 17.5352C34.0486 17.0667 34.6754 16.4863 35.1751 15.8345Z" fill="#E2E2E2"/>
<defs>
<filter id="filter0_d_10_343" x="0.262005" y="0.743164" width="51.9034" height="46.9253" filterUnits="userSpaceOnUse" color-interpolation-filters="sRGB">
<feFlood flood-opacity="0" result="BackgroundImageFix"/>
<feColorMatrix in="SourceAlpha" type="matrix" values="0 0 0 0 0 0 0 0 0 0 0 0 0 0 0 0 0 0 127 0" result="hardAlpha"/>
<feOffset dy="3.54808"/>
<feGaussianBlur stdDeviation="1.77404"/>
<feComposite in2="hardAlpha" operator="out"/>
<feColorMatrix type="matrix" values="0 0 0 0 0 0 0 0 0 0 0 0 0 0 0 0 0 0 0.25 0"/>
<feBlend mode="normal" in2="BackgroundImageFix" result="effect1_dropShadow_10_343"/>
<feBlend mode="normal" in="SourceGraphic" in2="effect1_dropShadow_10_343" result="shape"/>
</filter>
</defs>
</svg>
